<svg width="843" height="713" viewBox="0 0 843 713" fill="none" xmlns="http://www.w3.org/2000/svg">
<path d="M488.564 260.009C503.661 290.203 506.038 321.516 505.339 333.398L526.307 354.366C530.501 345.28 543.501 325.849 561.953 320.817C580.406 315.785 590.61 321.516 593.406 325.011L595.503 320.817L599.697 285.171L597.6 251.621L580.825 207.588L566.147 184.522L553.566 165.651L513.726 127.908L467.596 109.036L442.434 117.423L421.465 123.714L402.594 121.617L392.109 117.423H377.432L364.851 121.617L350.173 123.714L308.236 144.682L301.945 153.07C345.979 138.392 444.53 150.973 448.724 153.07C452.918 155.167 478.08 159.36 488.564 188.716C496.951 212.201 492.059 246.03 488.564 260.009Z" fill="white" stroke="white" stroke-width="4.19368"/>
<path fill-rule="evenodd" clip-rule="evenodd" d="M421.465 706.131C399.194 710.588 376.169 712.926 352.604 712.926C157.866 712.926 0 553.332 0 356.463C0 159.594 157.866 0 352.604 0C376.169 0 399.194 2.33699 421.465 6.79423C443.736 2.33699 466.761 0 490.326 0C685.064 0 842.93 159.594 842.93 356.463C842.93 553.332 685.064 712.926 490.326 712.926C466.761 712.926 443.736 710.588 421.465 706.131ZM474.233 691.15C609.04 641.065 705.207 510.117 705.207 356.463C705.207 202.808 609.04 71.8604 474.233 21.7758C479.566 21.5181 484.931 21.3878 490.326 21.3878C673.379 21.3878 821.773 171.406 821.773 356.463C821.773 541.52 673.379 691.538 490.326 691.538C484.931 691.538 479.566 691.407 474.233 691.15ZM368.331 691.014C363.119 691.26 357.876 691.384 352.604 691.384C169.634 691.384 21.3079 541.435 21.3079 356.463C21.3079 171.491 169.634 21.5411 352.604 21.5411C357.876 21.5411 363.119 21.6656 368.331 21.9118C233.716 72.0972 137.723 202.947 137.723 356.463C137.723 509.978 233.716 640.828 368.331 691.014ZM421.098 684.218C271.276 652.034 158.879 517.518 158.879 356.463C158.879 195.408 271.276 60.8915 421.098 28.7076C571.202 60.6068 683.899 195.23 683.899 356.463C683.899 517.696 571.202 652.319 421.098 684.218Z" fill="white"/>
<path d="M561.954 434.046C546.577 446.627 517.92 469.692 517.92 429.852L515.823 421.465" stroke="white" stroke-width="8.38736" stroke-linecap="round"/>
<path d="M398.4 339.688C401.405 338.185 401.27 328.719 400.707 322.743C400.603 321.639 399.665 320.816 398.556 320.816C398.452 320.816 398.349 320.824 398.246 320.838L375.345 324.11C371.73 324.626 369.044 327.723 369.044 331.375C369.044 334.962 371.634 338.03 375.186 338.534C384.074 339.795 395.735 341.02 398.4 339.688Z" fill="white" stroke="white" stroke-width="4.19368" stroke-linecap="round"/>
<path d="M239.039 306.139C239.039 284.332 248.824 246.729 253.717 230.653C260.706 215.276 278.459 179.49 293.557 159.36C308.654 139.231 341.784 124.413 356.462 119.52C357.86 120.918 363.172 122.875 373.236 119.52C385.817 115.327 394.205 113.23 402.592 119.52C409.302 124.553 447.325 114.628 465.497 109.036C483.67 109.036 530.08 124.133 570.339 184.522C610.599 244.911 603.889 303.343 595.501 325.011C585.017 309.634 569.92 287.687 593.405 322.914C616.889 358.141 580.824 413.078 559.855 436.143C557.758 447.326 553.565 479.338 553.565 517.92C553.565 556.502 570.339 601.095 576.63 614.375C540.984 658.408 455.013 687.764 429.851 689.861C409.721 691.538 339.687 666.097 316.622 654.215L312.428 599.697V595.503C299.008 593.826 290.062 586.417 287.266 582.922L289.363 564.05C285.868 554.265 277.621 533.017 272.588 526.307C267.556 519.597 260.706 492.758 257.91 480.177L255.814 406.787M239.039 306.139C225.06 309.634 206.747 317.043 203.392 318.72C200.037 320.398 201.295 329.204 201.295 329.204C203.392 335.495 205.489 339.689 207.586 343.882C209.683 348.076 216.673 365.55 220.167 373.238C223.662 380.227 226.458 394.206 234.845 400.497C243.847 407.249 253.018 406.787 255.814 406.787M239.039 306.139C246.727 306.838 264.62 310.333 274.685 318.72C284.75 327.107 297.051 341.785 301.944 348.076M255.814 406.787C264.201 401.895 283.492 387.077 293.557 366.947L301.944 348.076M301.944 348.076L310.331 329.204C314.525 327.107 325.429 322.914 335.493 322.914C348.075 322.914 398.399 337.592 402.592 341.785C406.786 345.979 390.011 352.27 387.914 362.754C385.818 373.238 390.011 398.4 379.527 404.691C369.043 410.981 360.656 421.465 341.784 413.078C326.687 406.368 315.923 386.518 312.428 377.432L301.944 348.076Z" stroke="white" stroke-width="10.4842"/>
<path d="M310.331 343.882C310.331 340.527 313.127 334.097 314.525 331.301H308.234L306.137 339.688C307.535 342.484 310.331 347.237 310.331 343.882Z" fill="white"/>
<path d="M282.167 494.291L274.763 492.176C271.462 491.232 267.907 492.041 265.339 494.32L265.114 494.519C262.056 497.232 261.047 501.581 262.597 505.364L266.595 515.118C267.816 518.098 271.87 518.502 273.656 515.823C275.862 512.515 275.167 509.206 274.013 506.202C272.267 501.657 275.673 494.694 277.85 499.048C278.59 500.529 279.902 502.064 281.317 503.437C284.288 506.32 288.445 507.453 292.583 507.36C300.661 507.179 310.907 506.633 313.496 505.339C316.409 503.883 325.852 503.375 331.951 503.266C332.757 503.252 333.066 502.26 332.38 501.838C328.881 499.682 323.104 496.952 317.69 496.952C311.482 496.952 295.22 495.755 286.18 495.022C284.82 494.912 283.48 494.666 282.167 494.291Z" fill="white"/>
<path d="M273.656 515.823C275.862 512.515 275.167 509.206 274.013 506.202C272.267 501.657 275.673 494.694 277.85 499.048V499.048C278.59 500.529 279.902 502.064 281.317 503.437C284.288 506.32 288.445 507.453 292.583 507.36C300.661 507.179 310.907 506.633 313.496 505.339C316.409 503.883 325.852 503.375 331.951 503.266C332.757 503.252 333.066 502.26 332.38 501.838C328.881 499.682 323.104 496.952 317.69 496.952C311.482 496.952 295.22 495.755 286.18 495.022C284.82 494.912 283.48 494.666 282.167 494.291L274.763 492.176C271.462 491.232 267.907 492.041 265.339 494.32L265.114 494.519C262.056 497.232 261.047 501.581 262.597 505.364L266.595 515.118C267.816 518.098 271.87 518.502 273.656 515.823V515.823ZM273.656 515.823C271.056 519.724 269.463 515.823 269.463 528.404" stroke="white" stroke-width="4.19368"/>
<path d="M280.278 474.777C274.084 471.265 271.084 472.917 269.814 475.446C268.839 477.387 267.523 479.387 265.409 479.887C262.585 480.554 261.057 483.64 262.188 486.313C263.373 489.113 266.861 490.141 269.342 488.383L270.876 487.295C272.535 486.119 273.521 484.212 273.521 482.178V481.163C273.521 480.21 273.991 479.657 274.537 479.355C275.285 478.94 276.188 479.165 277.004 479.422L282.53 481.163C287.785 482.582 298.745 484.994 300.547 483.292C301.939 481.976 304.315 481.423 306.017 481.239C306.867 481.147 307.72 481.289 308.527 481.571C311.019 482.442 314.791 483.982 316.312 485.42C317.982 486.998 342.985 494.79 357.994 499.313C360.149 499.962 361.948 501.441 363 503.43L363.608 504.578C365.109 507.416 369.013 513.944 372.616 517.35C376.039 520.585 378.195 515.103 378.969 510.457C379.075 509.82 379.221 509.267 379.373 508.835C380.124 505.997 381.175 499.469 379.373 496.063C377.571 492.658 365.109 483.292 359.103 479.034L327.573 462.005C321.567 459.167 310.457 452.639 314.06 449.233C317.351 446.123 325.9 445.143 330.79 444.996C331.645 444.971 332.494 444.85 333.301 444.568C335.793 443.697 339.564 442.157 341.086 440.719C345.681 436.376 352.007 433.124 355.563 438.351L365.86 453.49C359.854 443.557 347.392 422.838 345.59 419.432C343.948 416.327 339.684 415.345 337.237 415.196C336.801 415.169 336.368 415.208 335.936 415.276C326.867 416.705 312.513 418.966 323.069 417.303C330.869 416.075 336.011 416.989 338.834 418.126C340.415 418.763 341.292 420.321 341.546 422.007C342.142 425.967 342.529 431.606 341.086 434.333C338.834 438.59 329.825 442.847 327.573 442.847C326.218 442.847 324.779 440.44 323.829 438.341C323.279 437.127 322.57 435.958 321.394 435.33C318.725 433.904 313.417 432.204 305.052 432.204C294.241 432.204 291.539 435.042 291.539 436.461C291.539 437.88 291.989 440.719 293.791 440.719C295.233 440.719 298.696 439.809 301.176 439.082C302.251 438.767 303.372 438.639 304.486 438.766C312.09 439.63 323.005 441.813 316.312 444.976C311.53 447.236 302.518 447.121 294.802 446.374C289.569 445.867 284.466 450.019 281.66 454.464C278.803 458.991 274.466 462.96 270.739 465.728C268.357 467.497 265.39 471.248 267.82 472.949C268.13 473.166 268.522 473.116 269.017 472.648C271.269 470.52 275.773 468.391 278.026 468.391C279.374 468.391 281.647 469.98 283.335 471.375C284.313 472.183 285.407 472.866 286.653 473.108C289.487 473.657 294.031 473.992 298.295 472.648C303.7 470.945 309.556 471.939 311.808 472.648C313.309 473.358 321.267 476.906 341.086 485.42C352.843 490.471 358.841 493.774 361.618 495.774C363.357 497.026 362.416 498.076 360.374 497.425C349.829 494.063 319.67 480.621 311.808 476.906C305.428 473.89 300.93 475.102 298.941 476.404C298.484 476.703 298.069 477.064 297.572 477.29C294.798 478.553 288.469 479.422 280.278 474.777Z" fill="white" stroke="white" stroke-width="2.09684"/>
<path d="M291.461 528.402C293.013 529.954 298.961 530.519 304.906 530.678C309.764 530.807 313.927 539.037 316.623 543.08C319.978 548.112 336.193 547.973 343.882 547.274C337.591 547.973 323.752 549.37 318.72 549.37C313.857 549.37 321.655 561.118 326.601 567.585C326.936 568.024 327.213 568.502 327.554 568.937C329.745 571.738 337.372 575.525 354.366 572.436C372.181 569.197 386.218 560.484 391.569 556.113C391.933 555.815 392.312 555.542 392.71 555.291C399.565 550.972 410.167 540.835 403.199 531.275C402.816 530.749 402.327 530.301 401.81 529.905C401.298 529.512 400.818 529.135 400.369 528.773C396.528 525.678 398.441 522.497 403.326 523.173C410.429 524.155 418.788 525.668 423.849 527.614C425.064 528.082 427.037 528.2 426.331 527.105C426.184 526.877 425.966 526.612 425.658 526.305C424.554 525.201 417.332 522.825 410.332 520.732C405.261 519.215 404.167 514.135 409.448 513.775C409.936 513.742 410.447 513.724 410.981 513.724C416.357 513.724 424.785 516.417 430.439 518.565C432.745 519.442 435.206 518.467 433.181 517.058C431.842 516.126 429.506 515.007 425.658 513.724C424.103 513.206 422.694 512.747 421.422 512.343C417.011 510.941 414.74 503.24 419.368 503.24C422.484 503.24 429.457 505.651 433.235 507.115C433.777 507.324 434.289 507.596 434.772 507.918L436.286 508.927C438.791 510.597 442.178 509.676 439.904 507.705C439.086 506.995 437.875 506.203 436.143 505.337C434.406 504.469 432.726 503.676 431.154 502.964C426.264 500.754 424.278 493.76 429.584 492.959C431.587 492.656 433.815 493.107 436.143 494.853C440.337 497.998 443.111 499.669 444.772 500.48C445.942 501.051 447.706 500.9 447.687 499.598C447.67 498.481 446.465 496.869 442.433 494.853C437.778 492.525 435.468 482.174 440.214 484.31C440.255 484.329 440.296 484.348 440.336 484.368C442.827 485.614 446.241 487.706 448.693 489.274C450.089 490.165 452.736 491.031 452.672 489.376C452.647 488.732 452.152 487.797 450.821 486.465C450.049 485.694 449.263 485.056 448.493 484.53C445.314 482.361 440.658 478.388 443.885 476.29C444.893 475.634 446.434 475.409 448.724 475.981C453.394 477.149 455.626 478.722 456.552 479.571C456.956 479.943 457.101 480.266 457.579 480.537C459.503 481.627 458.362 477.149 456.564 475.86C456.435 475.767 456.305 475.676 456.175 475.586C452.363 472.954 449.502 466.815 453.981 465.632C454.312 465.544 454.657 465.497 455.014 465.497C456.906 465.497 458.887 466.83 460.505 468.369C462.537 470.302 466.143 470.991 464.441 468.762C464.174 468.412 463.831 468.023 463.402 467.594C463.055 467.247 462.706 466.913 462.356 466.59C458.813 463.326 456.488 455.013 461.305 455.013C462.459 455.013 465.005 456.999 467.163 458.922C468.824 460.401 470.98 461.563 470.543 459.382C470.366 458.498 469.372 456.779 468.682 456.199C467.446 455.159 465.696 453.87 464.11 452.749C462.574 451.663 462.151 449.55 463.194 447.985C464.386 446.197 466.916 445.949 468.538 447.359C470.574 449.13 472.821 450.819 473.886 450.819C475.979 450.819 474.997 447.983 473.322 446.727L470.535 444.637C468.886 443.4 468.49 441.089 469.634 439.374C470.824 437.588 473.236 437.106 475.021 438.296L476.968 439.594C477.614 440.025 478.475 439.939 479.024 439.39C479.66 438.754 479.66 437.722 479.024 437.086L476.294 434.356C474.894 432.955 474.676 430.761 475.775 429.114C477.048 427.204 479.627 426.689 481.536 427.961L483.378 429.189C483.955 429.574 484.723 429.498 485.213 429.008C485.862 428.359 485.756 427.278 485.019 426.732C482.87 425.139 480.176 422.807 480.176 421.463C480.176 420.426 481.246 418.8 482.392 417.38C483.421 416.106 485.309 416.111 486.467 417.27L487.515 418.318C488.094 418.897 489.033 418.897 489.612 418.318C490.191 417.739 490.19 416.801 489.644 416.191C488.22 414.6 486.467 412.307 486.467 410.979C486.467 409.703 488.085 407.536 489.475 405.957C490.109 405.237 491.21 405.238 491.889 405.917L493.371 407.399C493.919 407.947 494.854 407.559 494.854 406.785C494.854 406.086 494.435 404.269 492.757 402.592C491.581 401.415 492.399 398.793 493.475 396.609C494.109 395.322 495.801 395.151 496.816 396.166L497.121 396.471C498.069 397.419 499.667 397.16 500.266 395.961C500.751 394.991 500.358 393.811 499.388 393.326L498.986 393.125C497.843 392.554 497.346 391.197 497.772 389.992C501.705 378.881 504.038 357.853 505.004 344.796C505.236 341.658 507.138 338.874 510.042 337.661C523.011 332.244 541.248 325.968 536.791 333.396C530.5 343.88 517.919 383.72 515.823 390.011C514.145 395.043 508.134 441.034 505.338 463.4C501.145 481.573 489.402 519.176 475.983 524.208C462.563 529.241 432.648 551.467 419.368 561.951C408.884 570.339 384.141 588.372 369.044 593.404C354.544 598.237 329.858 598.3 318.019 597.678C317.089 597.629 316.184 597.415 315.324 597.057L294.543 588.398C292.564 587.573 290.952 586.032 290.204 584.023C287.75 577.425 285.728 568.242 291.461 568.242C299.848 568.242 299.848 561.951 301.945 559.855C303.404 558.395 302.853 552.598 302.225 548.814C302.056 547.792 301.661 546.829 301.108 545.954C296.11 538.047 288.289 525.231 291.461 528.402Z" fill="white" stroke="white" stroke-width="5.87115"/>
<path d="M209.684 322.913C204.652 326.268 208.985 341.086 209.684 348.075L207.587 350.172L199.2 331.301L197.103 322.913L211.781 312.429L239.04 306.139L268.396 314.526L291.461 333.398L299.848 350.172L280.977 385.819C273.987 392.109 257.911 405.11 249.524 406.787C241.137 408.464 229.255 396.303 224.362 390.012V383.722C224.362 383.722 226.459 370.143 226.459 352.269C226.459 334.396 224.362 320.817 224.362 320.817C221.566 320.118 214.717 319.558 209.684 322.913Z" fill="white" stroke="white" stroke-width="0.419368"/>
<path d="M314.526 371.141C312.849 364.431 311.032 348.076 310.333 339.689L308.236 335.495L301.945 345.979L312.43 375.335L318.72 392.11L333.398 408.885L350.173 417.272L366.947 410.981L381.625 402.594L385.819 385.819L390.013 358.56L402.594 345.979L398.4 339.689L337.592 322.914L327.107 327.108C328.785 355.625 327.806 385.12 327.107 396.303C323.613 390.712 316.204 377.851 314.526 371.141Z" fill="white"/>
<path d="M536.791 329.204L513.726 331.301L405.283 339.643L396.303 341.785C394.905 346.678 394.625 354.786 404.69 348.076C414.755 341.366 474.585 336.893 503.242 335.495L505.339 339.688C515.124 337.591 535.114 332.978 536.791 331.301C538.469 329.623 537.49 329.204 536.791 329.204Z" fill="white"/>
<path d="M404.69 339.688L405.283 339.643M405.283 339.643L513.726 331.301L536.791 329.204C537.49 329.204 538.469 329.623 536.791 331.301C535.114 332.978 515.124 337.591 505.339 339.688L503.242 335.495C474.585 336.893 414.755 341.366 404.69 348.076C394.625 354.786 394.905 346.678 396.303 341.785L405.283 339.643Z" stroke="white" stroke-width="4.19368"/>
<path d="M339.687 299.849C338.009 293.139 344.579 288.666 348.074 287.268L358.558 285.171C369.043 283.075 392.946 279.72 404.689 283.075C416.431 286.43 426.356 294.258 429.851 297.753C440.335 309.635 457.529 330.883 442.432 320.818C427.335 310.753 408.184 304.043 400.495 301.946C392.807 301.247 374.914 301.107 364.849 306.14C354.784 311.172 349.472 311.033 348.074 310.334C345.977 309.635 341.364 306.559 339.687 299.849Z" fill="white" stroke="white" stroke-width="4.19368"/>
<path d="M277.04 440.367L273.494 436.863C270.65 434.052 270.074 429.554 271.728 425.914C277.346 413.547 286.855 388.015 291.324 373.183L295.395 352.191" stroke="white" stroke-width="7.96799" stroke-linecap="round"/>
<path d="M303.005 349.482L296.209 349.36C297.679 345.786 299.702 329.501 299.864 321.343L298.636 312.681" stroke="white" stroke-width="7.96799" stroke-linecap="round"/>
<path d="M285.17 304.042C283.492 309.074 273.288 311.73 268.395 312.429L253.717 320.816C246.728 313.827 234.846 299.009 243.233 295.654C251.62 292.299 270.492 292.859 278.879 293.558C281.675 294.955 286.847 299.009 285.17 304.042Z" fill="white" stroke="white" stroke-width="6.29052"/>
<path d="M559.432 344.149C561.74 348.295 567.049 357.832 569.819 362.808C571.897 366.541 571.343 378.762 570.387 388.603C569.85 394.14 566.891 399.119 562.455 402.476L556.006 407.356C554.21 408.715 552.677 410.381 551.228 412.104C549.05 414.697 546.003 417.643 543.447 418.122C542.624 418.276 541.79 418.022 540.977 417.497C535.077 413.683 537.109 404.828 541.085 399.036L543.737 395.172" stroke="white" stroke-width="8.38736" stroke-linecap="round"/>
<path d="M626.956 442.434C614.62 440.892 602.52 413.246 596.846 396.303M587.116 488.564C596.57 475.959 594.43 422.896 591.818 393.333C591.658 391.513 593.868 390.475 595.159 391.766V391.766C595.385 391.992 595.551 392.269 595.645 392.574C596.005 393.742 596.406 394.99 596.846 396.303M596.846 396.303C599.893 414.476 605.987 452.079 605.987 457.112" stroke="white" stroke-width="8.38736" stroke-linecap="round"/>
<path d="M587.116 400.497C582.922 417.272 573.696 452.499 570.341 459.209" stroke="white" stroke-width="8.38736" stroke-linecap="round"/>
<path d="M362.752 325.009C369.741 318.719 391.269 311.17 421.463 331.3" stroke="white" stroke-width="8.38736" stroke-linecap="round"/>
</svg>
